<svg width="120" height="120" viewBox="0 0 120 120" fill="none" xmlns="http://www.w3.org/2000/svg">
  <circle cx="60" cy="60" r="60" fill="#323232"/>
  <path d="M41.008 83.58C37.7213 83.58 34.8987 83.0193 32.54 81.898C30.22 80.7767 28.1127 79.0947 26.218 76.852L31.438 71.632C32.6367 73.2173 34.0287 74.4547 35.614 75.344C37.1993 76.1947 39.1327 76.62 41.414 76.62C43.4633 76.62 45.0873 76.214 46.286 75.402C47.5233 74.59 48.142 73.4687 48.142 72.038C48.142 70.8007 47.794 69.7953 47.098 69.022C46.402 68.2487 45.474 67.5913 44.314 67.05C43.1927 66.5087 41.936 66.0253 40.544 65.6C39.1907 65.136 37.818 64.614 36.426 64.034C35.0727 63.454 33.816 62.7387 32.656 61.888C31.5347 60.9987 30.626 59.8773 29.93 58.524C29.234 57.132 28.886 55.392 28.886 53.304C28.886 50.8293 29.4853 48.722 30.684 46.982C31.8827 45.242 33.526 43.908 35.614 42.98C37.702 42.052 40.0607 41.588 42.69 41.588C45.474 41.588 47.9873 42.11 50.23 43.154C52.4727 44.198 54.3093 45.5513 55.74 47.214L50.52 52.434C49.3213 51.1193 48.084 50.1527 46.808 49.534C45.5707 48.9153 44.1593 48.606 42.574 48.606C40.7567 48.606 39.326 48.954 38.282 49.65C37.238 50.346 36.716 51.3513 36.716 52.666C36.716 53.7873 37.064 54.696 37.76 55.392C38.456 56.088 39.3647 56.6873 40.486 57.19C41.646 57.6927 42.9027 58.176 44.256 58.64C45.648 59.104 47.0207 59.626 48.374 60.206C49.766 60.786 51.0227 61.54 52.144 62.468C53.304 63.396 54.232 64.5947 54.928 66.064C55.624 67.4947 55.972 69.2733 55.972 71.4C55.972 75.1893 54.638 78.1667 51.97 80.332C49.302 82.4973 45.648 83.58 41.008 83.58ZM55.8175 83V42.226H63.7055V83H55.8175ZM81.3955 83V42.226H89.2835V83H81.3955ZM60.8055 65.426V58.466H83.5995V65.426H60.8055Z" fill="#FFE7D0"/>
</svg>
